<svg data-v-423bf9ae="" xmlns="http://www.w3.org/2000/svg" viewBox="0 0 282 90" class="iconLeftSlogan"><g data-v-423bf9ae="" id="635486ca-98e6-4678-9aa0-dae991709a36" fill="#FFFFFF" transform="matrix(6.054490566253662,0,0,6.054490566253662,87.79690551757812,-22.7043399810791)"><path d="M8.50 3.75L9.90 3.75L9.90 13.55L8.75 13.55L2.87 6.24L2.87 13.55L1.47 13.55L1.47 3.75L2.62 3.75L8.50 11.06L8.50 3.75ZM16.90 13.66Q14.94 13.66 13.85 12.54Q12.75 11.42 12.75 9.32L12.75 9.32L12.75 3.75L14.15 3.75L14.15 9.27Q14.15 12.42 16.91 12.42L16.91 12.42Q18.26 12.42 18.97 11.64Q19.68 10.86 19.68 9.27L19.68 9.27L19.68 3.75L21.04 3.75L21.04 9.32Q21.04 11.44 19.95 12.55Q18.86 13.66 16.90 13.66L16.90 13.66ZM31.99 13.55L30.46 13.55L28.35 10.54Q27.96 10.57 27.73 10.57L27.73 10.57L25.31 10.57L25.31 13.55L23.91 13.55L23.91 3.75L27.73 3.75Q29.64 3.75 30.73 4.66Q31.82 5.57 31.82 7.17L31.82 7.17Q31.82 8.30 31.26 9.10Q30.70 9.90 29.67 10.26L29.67 10.26L31.99 13.55ZM27.69 9.38Q29.02 9.38 29.72 8.81Q30.42 8.23 30.42 7.17L30.42 7.17Q30.42 6.10 29.72 5.54Q29.02 4.97 27.69 4.97L27.69 4.97L25.31 4.97L25.31 9.38L27.69 9.38Z"></path></g><g data-v-423bf9ae="" id="b81b2cdf-74cc-4038-ab88-0c9843631ea4" transform="matrix(1.0903664827346802,0,0,1.0903664827346802,-0.4566846489906311,-8.74940299987793)" stroke="none" fill="#98D82C"><path d="M60.809 9.303c-13.335-3.511-13.684 3.202-24.62 3.914-10.935-.712-11.284-7.425-24.619-3.914-24.941 6.566 1.763 81.531 10.878 81.531s4.167-22.455 14.897-22.455 7.114 22.455 15.118 22.455S85.75 15.869 60.809 9.303M9.792 17.082c2.909-4.222 7.231-3.457 8.555-3.455 2.365.017 3.654.622 6.015 1.717 2.441 1.153 5.647 2.636 10.343 3.112a9.5 9.5 0 0 1-.993 2.093c-2.859 4.725-10.671 8.138-19.977 8.097-1.649.002-3.967-.102-5.673-.311-.662-4.937.359-9.266 1.73-11.253"></path></g><g data-v-423bf9ae="" id="47d65c10-66c0-4b3b-849b-affc31723894" fill="#FFFFFF" transform="matrix(1.85,0,0,1.4803369045257568,96.23811340332031,51.73971939086914)"><path d="M3.42 12.84L2.30 11.49L2.30 11.38L4.44 9.03L3.52 8.80L3.55 8.57L6.02 8.57L5.97 8.80L4.95 9.02L2.95 11.26L3.77 12.19Q3.92 12.37 4.22 12.71Q4.51 13.05 4.61 13.15Q4.70 13.25 4.90 13.46Q5.10 13.67 5.19 13.73Q5.28 13.79 5.45 13.89Q5.61 13.99 5.76 14.03Q5.90 14.06 6.08 14.08L6.08 14.08L6.35 14.11L6.30 14.40Q5.96 14.53 5.59 14.53L5.59 14.53Q5.09 14.53 4.71 14.23Q4.33 13.93 3.42 12.84L3.42 12.84ZM3.10 14.40L0.31 14.40L0.38 14.18L1.43 13.99L1.43 6.23L0.38 6.04L0.38 5.84L2.01 5.71L2.06 5.77L2.06 13.99L3.14 14.17L3.10 14.40ZM16.80 14.40L14.03 14.40L14.10 14.18L15.14 13.99L15.14 6.23L14.10 6.04L14.10 5.84L15.71 5.71L15.77 5.77L15.77 13.99L16.88 14.17L16.80 14.40ZM25.50 6.24L25.50 6.24Q25.50 5.58 25.92 5.58L25.92 5.58Q26.36 5.58 26.36 6.24L26.36 6.24Q26.36 6.94 25.93 6.94Q25.50 6.94 25.50 6.24ZM27.29 14.40L24.51 14.40L24.60 14.18L25.63 13.99L25.63 9.01L24.58 8.82L24.60 8.63L26.22 8.50L26.27 8.56L26.27 13.99L27.36 14.17L27.29 14.40ZM37.70 14.40L35.03 14.40L35.08 14.18L36.13 14.01L36.13 9.01L35.08 8.83L35.10 8.63L36.70 8.50L36.74 8.56L36.71 9.50L36.76 9.50Q37.05 9.11 37.68 8.75Q38.30 8.38 38.95 8.38L38.95 8.38Q39.61 8.38 40.04 8.87Q40.46 9.36 40.46 10.40L40.46 10.40L40.46 14.01L41.40 14.14L41.38 14.40L38.80 14.40L38.84 14.18L39.81 14.01L39.81 10.58Q39.81 9.73 39.49 9.32Q39.16 8.92 38.68 8.92L38.68 8.92Q38.10 8.92 37.72 9.12Q37.34 9.31 36.77 9.85L36.77 9.85L36.77 14.01L37.74 14.15L37.70 14.40ZM50.05 6.24L50.05 6.24Q50.05 5.58 50.48 5.58L50.48 5.58Q50.91 5.58 50.91 6.24L50.91 6.24Q50.91 6.94 50.48 6.94Q50.05 6.94 50.05 6.24ZM51.84 14.40L49.07 14.40L49.16 14.18L50.18 13.99L50.18 9.01L49.14 8.82L49.16 8.63L50.77 8.50L50.83 8.56L50.83 13.99L51.92 14.17L51.84 14.40ZM62.67 12.84L61.55 11.49L61.55 11.38L63.68 9.03L62.77 8.80L62.80 8.57L65.27 8.57L65.22 8.80L64.20 9.02L62.19 11.26L63.01 12.19Q63.17 12.37 63.46 12.71Q63.76 13.05 63.85 13.15Q63.95 13.25 64.15 13.46Q64.35 13.67 64.44 13.73Q64.53 13.79 64.70 13.89Q64.86 13.99 65.00 14.03Q65.15 14.06 65.33 14.08L65.33 14.08L65.60 14.11L65.55 14.40Q65.21 14.53 64.84 14.53L64.84 14.53Q64.33 14.53 63.95 14.23Q63.57 13.93 62.67 12.84L62.67 12.84ZM62.35 14.40L59.56 14.40L59.62 14.18L60.68 13.99L60.68 6.23L59.63 6.04L59.63 5.84L61.26 5.71L61.30 5.77L61.30 13.99L62.39 14.17L62.35 14.40ZM74.01 13.04L74.01 13.04Q74.01 13.47 74.27 13.79Q74.53 14.10 74.96 14.10L74.96 14.10Q75.43 14.10 75.83 13.83Q76.23 13.56 76.49 13.13L76.49 13.13L76.49 11.44Q76.03 11.51 75.70 11.58Q75.37 11.66 75.03 11.78Q74.69 11.90 74.48 12.06Q74.27 12.22 74.14 12.47Q74.01 12.72 74.01 13.04ZM73.32 13.24L73.32 13.24Q73.32 12.37 74.12 11.80Q74.92 11.23 76.49 11.14L76.49 11.14L76.49 10.87Q76.49 9.74 76.21 9.25Q75.94 8.75 75.18 8.75L75.18 8.75Q74.66 8.75 74.43 9.13Q74.20 9.52 74.12 10.23L74.12 10.23Q73.88 10.23 73.72 10.11Q73.55 9.99 73.55 9.78L73.55 9.78Q73.55 9.26 74.19 8.83Q74.83 8.40 75.54 8.40L75.54 8.40Q76.34 8.40 76.72 8.91Q77.10 9.43 77.10 10.51L77.10 10.51L77.10 12.83Q77.10 13.03 77.11 13.14Q77.11 13.24 77.13 13.40Q77.14 13.56 77.18 13.64Q77.22 13.73 77.28 13.83Q77.35 13.92 77.45 13.98Q77.56 14.03 77.70 14.05L77.70 14.05L78.16 14.14L78.12 14.38Q77.80 14.52 77.43 14.52L77.43 14.52Q77.03 14.52 76.80 14.25Q76.58 13.99 76.58 13.60L76.58 13.60L76.58 13.51L76.54 13.51Q76.41 13.88 75.90 14.23Q75.39 14.57 74.74 14.57L74.74 14.57Q74.17 14.57 73.75 14.21Q73.32 13.84 73.32 13.24ZM85.86 13.25L85.86 13.25Q85.86 12.78 86.41 12.65L86.41 12.65Q86.54 13.56 86.87 13.92Q87.20 14.29 87.89 14.29L87.89 14.29Q88.38 14.29 88.70 14Q89.02 13.71 89.02 13.34L89.02 13.34Q89.02 13.04 88.82 12.75Q88.61 12.46 88.29 12.25Q87.98 12.04 87.61 11.79Q87.25 11.54 86.93 11.30Q86.62 11.06 86.41 10.71Q86.20 10.36 86.20 9.96L86.20 9.96Q86.20 9.30 86.64 8.85Q87.08 8.40 87.94 8.40L87.94 8.40Q88.58 8.40 89.00 8.79Q89.42 9.17 89.42 9.67L89.42 9.67Q89.42 10.21 88.94 10.26L88.94 10.26L88.88 10.02Q88.68 9.27 88.41 8.99Q88.13 8.70 87.77 8.70L87.77 8.70Q87.27 8.70 87.00 8.93Q86.73 9.15 86.73 9.58L86.73 9.58Q86.73 9.88 86.90 10.15Q87.06 10.42 87.31 10.63Q87.57 10.84 87.88 11.04Q88.18 11.25 88.49 11.45Q88.81 11.66 89.06 11.88Q89.32 12.11 89.48 12.39Q89.64 12.67 89.64 13.00L89.64 13.00Q89.64 13.73 89.06 14.19Q88.48 14.64 87.66 14.64L87.66 14.64Q86.91 14.64 86.39 14.26Q85.86 13.88 85.86 13.25ZM98.30 6.24L98.30 6.24Q98.30 5.58 98.72 5.58L98.72 5.58Q99.16 5.58 99.16 6.24L99.16 6.24Q99.16 6.94 98.73 6.94Q98.30 6.94 98.30 6.24ZM100.09 14.40L97.32 14.40L97.41 14.18L98.43 13.99L98.43 9.01L97.38 8.82L97.41 8.63L99.02 8.50L99.07 8.56L99.07 13.99L100.17 14.17L100.09 14.40Z"></path></g></svg>